<?xml version="1.0" encoding="UTF-8"?>
<!DOCTYPE svg PUBLIC "-//W3C//DTD SVG 1.1//EN" "http://www.w3.org/Graphics/SVG/1.1/DTD/svg11.dtd">
<!-- Creator: CorelDRAW 2019 (64-Bit Evaluation Version) -->
<svg xmlns="http://www.w3.org/2000/svg" xml:space="preserve" width="210mm" height="297mm" version="1.1" style="shape-rendering:geometricPrecision; text-rendering:geometricPrecision; image-rendering:optimizeQuality; fill-rule:evenodd; clip-rule:evenodd"
viewBox="0 0 21000 29700"
 xmlns:xlink="http://www.w3.org/1999/xlink"
 xmlns:xodm="http://www.corel.com/coreldraw/odm/2003">
 <defs>
  <style type="text/css">
   <![CDATA[
    .fil0 {fill:#F8F8F8}
   ]]>
  </style>
 </defs>
 <g id="Layer_x0020_1">
  <metadata id="CorelCorpID_0Corel-Layer"/>
  <path class="fil0" d="M-23373.8 18773.88l67733.34 0 0 -7478.89c-1376.36,-320.65 -2239.03,-471.96 -3710.73,-288.78 -1882.42,234.31 -4085.15,1077.02 -5743.72,1911.56 -159.5,80.26 -313.86,138.6 -482.55,223 -306.16,153.19 -607.85,324.95 -918.36,457.47 -639.68,273.01 -1247.36,608.39 -1868.16,918.79l-1891.67 895.27c-664.01,283.88 -1234.27,566.4 -1940.09,846.85 -2557.18,1016.08 -5591.21,1976.18 -9093.07,2019.44 -218.33,2.69 -369.85,36.77 -633.6,36.77 -276.06,0 -431.59,-36.25 -669.07,-36.58 -1222.52,-1.7 -1537.53,-82.02 -2610.73,-140.93 -1366.37,-75 -4687.52,-710.2 -5962.59,-1022.41 -377.92,-92.53 -721.17,-175.89 -1114.39,-261.45 -826.98,-179.93 -2492.51,-642.29 -3295.72,-867.05l-8663.08 -2449.42c-991.93,-283.45 -2277.39,-652.95 -3282.07,-880.71 -1920.25,-435.32 -3991.22,-832.65 -6117.07,-832.65 -977.55,0 -1802.29,2.1 -2670.73,116.21 -906.65,119.13 -1452.19,248.07 -2303.57,483.38 -912.63,252.24 -2035.72,792.78 -2815.06,1312.44l-813.86 597.25c-157.4,124.35 -950.03,846.03 -1071.1,1010.29 -35.79,48.56 -53.86,117.56 -62.35,196.12l0 447.09 0 43.55c0.09,798.34 0.02,1596.68 0,2395.02l0 43.55 0 43.54 0 43.55 0 43.55 0 43.54 0 43.55 0 43.54 0 43.55z"/>
 </g>
</svg>
